# xmcd
#
# Track frame offsets:
#       150
#       14956
#       36044
#       53653
#       68187
#       84054
#       106900
#       124638
#       141121
#
# Disc length: 2224 seconds
#
# Revision: 1
# Processed by: cddbd v1.4PL0 Copyright (c) Steve Scherf et al.
# Submitted via: MusiCat 1.1
#
DISCID=7008ae09
DTITLE=Rosemary Clooney - Plays the Music of Horald Arlen
DYEAR=1900
DGENRE=
TTITLE0=Hooray for Love
TTITLE1=Happiness is a Thing Called Joe
TTITLE2=One for My Baby (And One More for the Road)
TTITLE3=Get Happy
TTITLE4=Ding Dong! The Witch is Dead
TTITLE5=Out of this World
TTITLE6=My shining Hour
TTITLE7=Let's Take the Long Way Home
TTITLE8=Stormy Weather
EXTD=\n\n
EXTT0=
EXTT1=
EXTT2=
EXTT3=
EXTT4=
EXTT5=
EXTT6=
EXTT7=
EXTT8=
PLAYORDER=
